<svg viewBox="0 0 2000 1000" xmlns="http://www.w3.org/2000/svg"><defs><filter id="b" x="-200%" y="-200%" width="500%" height="500%"><feGaussianBlur in="SourceGraphic" stdDeviation="20"/></filter></defs><path fill="#0e0e0f" d="M0 0h2000v1000H0z"/><ellipse cx="322.635" cy="22.439" rx="2.03" ry="1.839" fill="#ea2845" opacity=".773"/><ellipse cx="546.899" cy="10.796" rx="1.581" ry="1.105" fill="#ea2845" opacity=".206"/><ellipse cx="1166.692" cy="24.754" rx="1.648" ry="1.35" fill="#ea2845" opacity=".706"/><ellipse cx="1250.965" cy="2.172" rx="1.426" ry="1.062" fill="#ea2845" opacity=".616"/><ellipse cx="1964.927" cy="21.836" rx="2.133" ry="1.917" fill="#ea2845" opacity=".594"/><ellipse cx="363.468" cy="54.616" rx="2.018" ry="1.602" fill="#ea2845" opacity=".107"/><ellipse cx="771.696" cy="46.168" rx="1.384" ry="1.032" fill="#ea2845" opacity=".257"/><ellipse cx="1097.231" cy="61.056" rx="1.717" ry="1.501" fill="#ea2845" opacity=".773"/><ellipse cx="1233.115" cy="55.907" rx="1.709" ry="1.658" fill="#ea2845" opacity=".617"/><ellipse cx="1739.274" cy="51.574" rx="2.063" ry="1.646" fill="#ea2845" opacity=".194"/><ellipse cx="273.222" cy="73.199" rx="1.541" ry="1.225" fill="#ea2845" opacity=".151"/><ellipse cx="606.919" cy="73.263" rx="1.437" ry="1.274" fill="#ea2845" opacity=".592"/><ellipse cx="1125.715" cy="91.264" rx="1.392" ry="1.178" fill="#ea2845" opacity=".006"/><ellipse cx="1385.812" cy="76.254" rx="1.954" ry="1.926" fill="#ea2845" opacity=".748"/><ellipse cx="1704.106" cy="85.382" rx="1.915" ry="1.892" fill="#ea2845" opacity="-.035"/><ellipse cx="30.928" cy="111.293" rx="1.335" ry="1.283" fill="#ea2845" opacity=".693"/><ellipse cx="547.585" cy="117.607" rx="1.562" ry="1.381" fill="#ea2845" opacity=".205"/><ellipse cx="1189.835" cy="118.941" rx="1.469" ry="1.237" fill="#ea2845" opacity="-.007"/><ellipse cx="1244.979" cy="102.372" rx="1.978" ry="1.928" fill="#ea2845" opacity="-.078"/><ellipse cx="1658.293" cy="133.75" rx="2.097" ry="1.973" fill="#ea2845" opacity=".66"/><ellipse cx="66.506" cy="143.094" rx="1.66" ry="1.221" fill="#ea2845" opacity=".294"/><ellipse cx="740.555" cy="137.213" rx="1.755" ry="1.53" fill="#ea2845" opacity=".73"/><ellipse cx="1014.259" cy="164.605" rx="1.271" ry="1.224" fill="#ea2845" opacity=".499"/><ellipse cx="1467.715" cy="164.208" rx="1.611" ry="1.254" fill="#ea2845" opacity=".608"/><ellipse cx="1654.252" cy="166.962" rx="1.895" ry="1.591" fill="#ea2845" opacity=".241"/><ellipse cx="387.323" cy="182.044" rx="2.013" ry="1.557" fill="#ea2845" opacity=".021"/><ellipse cx="473.503" cy="181.186" rx="1.909" ry="1.468" fill="#ea2845" opacity="-.039"/><ellipse cx="860.896" cy="190.23" rx="1.908" ry="1.645" fill="#ea2845" opacity=".464"/><ellipse cx="1507.867" cy="202.566" rx="1.434" ry="1.252" fill="#ea2845" opacity=".844"/><ellipse cx="1884.208" cy="177.188" rx="1.598" ry="1.442" fill="#ea2845" opacity=".53"/><ellipse cx="281.977" cy="210.638" rx="1.375" ry="1.087" fill="#ea2845" opacity=".411"/><ellipse cx="599.153" cy="217.593" rx="1.675" ry="1.668" fill="#ea2845" opacity=".45"/><ellipse cx="965.472" cy="209.637" rx="1.243" ry="1.143" fill="#ea2845" opacity=".447"/><ellipse cx="1399.044" cy="226.224" rx="2.265" ry="1.976" fill="#ea2845" opacity=".217"/><ellipse cx="1621.054" cy="231.735" rx="2.026" ry="1.68" fill="#ea2845" opacity=".49"/><ellipse cx="95.752" cy="241.301" rx="1.71" ry="1.659" fill="#ea2845" opacity=".298"/><ellipse cx="423.197" cy="238.453" rx="1.98" ry="1.776" fill="#ea2845" opacity="-.007"/><ellipse cx="893.927" cy="245.008" rx="1.594" ry="1.21" fill="#ea2845" opacity=".182"/><ellipse cx="1586.766" cy="241.932" rx="1.846" ry="1.822" fill="#ea2845" opacity=".92"/><ellipse cx="1728.707" cy="264.61" rx="2.153" ry="1.895" fill="#ea2845" opacity=".295"/><ellipse cx="294.345" cy="277.425" rx="2.056" ry="1.847" fill="#ea2845" opacity=".509"/><ellipse cx="454.584" cy="283.883" rx="1.979" ry="1.724" fill="#ea2845" opacity=".199"/><ellipse cx="838.436" cy="278.744" rx="1.485" ry="1.429" fill="#ea2845" opacity=".614"/><ellipse cx="1499.549" cy="280.053" rx="1.765" ry="1.43" fill="#ea2845" opacity=".522"/><ellipse cx="1660.363" cy="287.391" rx="1.89" ry="1.657" fill="#ea2845" opacity=".326"/><ellipse cx="148.906" cy="315.998" rx="1.605" ry="1.175" fill="#ea2845" opacity=".497"/><ellipse cx="557.742" cy="306.57" rx="1.47" ry="1.405" fill="#ea2845" opacity=".322"/><ellipse cx="928.595" cy="325.027" rx="1.454" ry="1.295" fill="#ea2845" opacity=".16"/><ellipse cx="1481.277" cy="329.243" rx="1.442" ry="1.3" fill="#ea2845" opacity=".78"/><ellipse cx="1913.129" cy="326.636" rx="1.412" ry="1.344" fill="#ea2845" opacity=".911"/><ellipse cx="47.095" cy="365.032" rx="1.401" ry="1.381" fill="#ea2845" opacity=".342"/><ellipse cx="763.284" cy="370.723" rx="1.449" ry="1.283" fill="#ea2845" opacity=".558"/><ellipse cx="943.844" cy="352.265" rx="2.17" ry="1.948" fill="#ea2845" opacity=".22"/><ellipse cx="1206.241" cy="372.233" rx="1.51" ry="1.051" fill="#ea2845" opacity=".349"/><ellipse cx="1920.11" cy="348.232" rx="2.116" ry="1.958" fill="#ea2845" opacity=".051"/><ellipse cx="273.38" cy="391.433" rx="2.248" ry="1.873" fill="#ea2845" opacity=".041"/><ellipse cx="444.871" cy="391.501" rx="1.515" ry="1.153" fill="#ea2845" opacity="-.007"/><ellipse cx="1116.701" cy="405.027" rx="1.974" ry="1.853" fill="#ea2845" opacity="-.044"/><ellipse cx="1347.424" cy="397.103" rx="1.439" ry="1.256" fill="#ea2845" opacity="-.235"/><ellipse cx="1735.937" cy="407.424" rx="1.448" ry="1.183" fill="#ea2845" opacity=".695"/><ellipse cx="108.229" cy="433.373" rx="2.104" ry="1.982" fill="#ea2845" opacity=".182"/><ellipse cx="462.735" cy="435.841" rx="2.255" ry="1.785" fill="#ea2845" opacity=".266"/><ellipse cx="853.473" cy="412.562" rx="2.132" ry="1.955" fill="#ea2845" opacity=".138"/><ellipse cx="1363.433" cy="423.838" rx="2.137" ry="1.969" fill="#ea2845" opacity=".001"/><ellipse cx="1876.634" cy="430.585" rx="1.622" ry="1.311" fill="#ea2845" opacity=".296"/><ellipse cx="399.586" cy="466.132" rx="2.279" ry="1.858" fill="#ea2845" opacity=".545"/><ellipse cx="560.024" cy="462.499" rx="1.225" ry="1.18" fill="#ea2845" opacity=".518"/><ellipse cx="827.779" cy="463.492" rx="1.523" ry="1.176" fill="#ea2845" opacity=".471"/><ellipse cx="1280.339" cy="457.035" rx="1.569" ry="1.197" fill="#ea2845" opacity="-.065"/><ellipse cx="1772.205" cy="464.61" rx="1.991" ry="1.682" fill="#ea2845" opacity=".45"/><ellipse cx="19.114" cy="498.77" rx="1.521" ry="1.066" fill="#ea2845" opacity=".447"/><ellipse cx="761.498" cy="487.495" rx="1.834" ry="1.683" fill="#ea2845" opacity=".316"/><ellipse cx="1025.332" cy="497.865" rx="1.53" ry="1.276" fill="#ea2845" opacity=".649"/><ellipse cx="1422.227" cy="490.259" rx="1.924" ry="1.896" fill="#ea2845" opacity=".228"/><ellipse cx="1780.254" cy="484.011" rx="1.85" ry="1.676" fill="#ea2845" opacity=".447"/><ellipse cx="261.095" cy="541.083" rx="2.12" ry="1.97" fill="#ea2845" opacity="-.004"/><ellipse cx="733.832" cy="532.389" rx="2.305" ry="1.955" fill="#ea2845" opacity=".062"/><ellipse cx="1001.383" cy="514.695" rx="1.797" ry="1.38" fill="#ea2845" opacity=".445"/><ellipse cx="1271.43" cy="526.229" rx="1.641" ry="1.472" fill="#ea2845" opacity=".766"/><ellipse cx="1645.909" cy="510.134" rx="1.617" ry="1.532" fill="#ea2845" opacity=".706"/><ellipse cx="150.282" cy="577.095" rx="1.706" ry="1.643" fill="#ea2845" opacity="-.019"/><ellipse cx="491.072" cy="564.723" rx="1.831" ry="1.773" fill="#ea2845" opacity="-.019"/><ellipse cx="1141.129" cy="547.843" rx="1.819" ry="1.774" fill="#ea2845" opacity="-.045"/><ellipse cx="1490.643" cy="575.327" rx="1.622" ry="1.601" fill="#ea2845" opacity=".539"/><ellipse cx="1861.054" cy="553.735" rx="1.759" ry="1.747" fill="#ea2845" opacity=".157"/><ellipse cx="190.856" cy="594.276" rx="1.999" ry="1.839" fill="#ea2845" opacity=".303"/><ellipse cx="587.987" cy="606.313" rx="1.236" ry="1.023" fill="#ea2845" opacity=".457"/><ellipse cx="834.832" cy="595.487" rx="2.064" ry="1.658" fill="#ea2845" opacity=".461"/><ellipse cx="1335.931" cy="583.522" rx="1.453" ry="1.154" fill="#ea2845" opacity=".482"/><ellipse cx="1690.878" cy="594.806" rx="1.73" ry="1.424" fill="#ea2845" opacity=".483"/><ellipse cx="47.741" cy="628.047" rx="2.223" ry="1.723" fill="#ea2845" opacity=".465"/><ellipse cx="724.309" cy="626.573" rx="1.629" ry="1.292" fill="#ea2845" opacity=".348"/><ellipse cx="923.474" cy="613.36" rx="1.621" ry="1.158" fill="#ea2845" opacity=".246"/><ellipse cx="1393.073" cy="618.852" rx="1.81" ry="1.583" fill="#ea2845" opacity="-.202"/><ellipse cx="1691.872" cy="620.501" rx="1.758" ry="1.693" fill="#ea2845" opacity=".137"/><ellipse cx="165.564" cy="659.372" rx="2.406" ry="1.952" fill="#ea2845" opacity=".054"/><ellipse cx="613.035" cy="646.128" rx="2.305" ry="1.962" fill="#ea2845" opacity=".233"/><ellipse cx="901.542" cy="658.879" rx="1.244" ry="1.018" fill="#ea2845" opacity=".305"/><ellipse cx="1335.675" cy="673.808" rx="2.043" ry="1.602" fill="#ea2845" opacity=".05"/><ellipse cx="1948.504" cy="658.87" rx="1.615" ry="1.58" fill="#ea2845" opacity=".166"/><ellipse cx="244.692" cy="711.527" rx="1.871" ry="1.688" fill="#ea2845" opacity=".17"/><ellipse cx="619.718" cy="680.65" rx="1.15" ry="1.101" fill="#ea2845" opacity=".24"/><ellipse cx="896.419" cy="683.182" rx="1.82" ry="1.607" fill="#ea2845" opacity="-.164"/><ellipse cx="1413.719" cy="699.227" rx="2.433" ry="1.965" fill="#ea2845" opacity=".917"/><ellipse cx="1868.101" cy="708.16" rx="1.308" ry="1.136" fill="#ea2845" opacity=".112"/><ellipse cx="188.508" cy="737.997" rx="1.558" ry="1.177" fill="#ea2845" opacity=".352"/><ellipse cx="412.27" cy="740.161" rx="1.879" ry="1.676" fill="#ea2845" opacity=".788"/><ellipse cx="1090.506" cy="714.496" rx="2.251" ry="1.826" fill="#ea2845" opacity=".627"/><ellipse cx="1335.093" cy="735.455" rx="1.715" ry="1.539" fill="#ea2845" opacity=".015"/><ellipse cx="1780.572" cy="746.151" rx="1.819" ry="1.766" fill="#ea2845" opacity=".12"/><ellipse cx="48.784" cy="757.795" rx="2.21" ry="1.947" fill="#ea2845" opacity="-.115"/><ellipse cx="640.368" cy="774.986" rx="1.8" ry="1.412" fill="#ea2845" opacity=".029"/><ellipse cx="874.01" cy="757.001" rx="2.163" ry="1.816" fill="#ea2845" opacity=".73"/><ellipse cx="1433.344" cy="774.865" rx="1.915" ry="1.528" fill="#ea2845" opacity=".34"/><ellipse cx="1815.119" cy="752.343" rx="1.785" ry="1.305" fill="#ea2845" opacity=".189"/><ellipse cx="344.006" cy="803.22" rx="1.259" ry="1.144" fill="#ea2845" opacity=".818"/><ellipse cx="581.563" cy="809.327" rx="1.66" ry="1.3" fill="#ea2845" opacity=".213"/><ellipse cx="809.66" cy="808.418" rx="2.141" ry="1.662" fill="#ea2845" opacity="-.046"/><ellipse cx="1551.489" cy="795.658" rx="1.734" ry="1.349" fill="#ea2845" opacity="-.148"/><ellipse cx="1609.092" cy="800.24" rx="1.281" ry="1.255" fill="#ea2845" opacity=".66"/><ellipse cx="176.927" cy="836.376" rx="1.452" ry="1.087" fill="#ea2845" opacity="-.291"/><ellipse cx="417.68" cy="837.242" rx="1.988" ry="1.727" fill="#ea2845" opacity="-.215"/><ellipse cx="1084.841" cy="846.171" rx="2.178" ry="1.799" fill="#ea2845" opacity=".257"/><ellipse cx="1482.279" cy="835.075" rx="1.648" ry="1.475" fill="#ea2845" opacity=".494"/><ellipse cx="1726.162" cy="847.495" rx="2.022" ry="1.528" fill="#ea2845" opacity=".258"/><ellipse cx="213.854" cy="857.418" rx="1.966" ry="1.866" fill="#ea2845" opacity=".059"/><ellipse cx="696.679" cy="862.94" rx="1.641" ry="1.451" fill="#ea2845" opacity=".734"/><ellipse cx="1025.892" cy="880.844" rx="2.022" ry="1.625" fill="#ea2845" opacity=".565"/><ellipse cx="1377.604" cy="872.718" rx="2.343" ry="1.974" fill="#ea2845" opacity=".397"/><ellipse cx="1867.286" cy="864.129" rx="1.459" ry="1.202" fill="#ea2845" opacity=".743"/><ellipse cx="215.999" cy="905.358" rx="1.996" ry="1.972" fill="#ea2845" opacity="-.084"/><ellipse cx="735.287" cy="912.963" rx="2.1" ry="1.767" fill="#ea2845" opacity=".718"/><ellipse cx="941.695" cy="916.295" rx="1.549" ry="1.204" fill="#ea2845" opacity="-.108"/><ellipse cx="1290.219" cy="902.391" rx="1.684" ry="1.419" fill="#ea2845" opacity=".798"/><ellipse cx="1941.453" cy="915.133" rx="1.896" ry="1.835" fill="#ea2845" opacity=".048"/><ellipse cx="213.216" cy="932.573" rx="1.691" ry="1.665" fill="#ea2845" opacity="-.205"/><ellipse cx="779.566" cy="921.539" rx="1.957" ry="1.936" fill="#ea2845" opacity=".429"/><ellipse cx="917.123" cy="942.834" rx="1.406" ry="1.361" fill="#ea2845" opacity=".832"/><ellipse cx="1460.342" cy="940.642" rx="1.394" ry="1.181" fill="#ea2845" opacity=".417"/><ellipse cx="1762.865" cy="918.422" rx="1.493" ry="1.292" fill="#ea2845" opacity=".866"/><ellipse cx="144.641" cy="952.007" rx="1.242" ry="1.167" fill="#ea2845" opacity=".166"/><ellipse cx="438.932" cy="957.804" rx="1.95" ry="1.719" fill="#ea2845" opacity=".107"/><ellipse cx="1185.178" cy="963.824" rx="1.644" ry="1.572" fill="#ea2845" opacity=".776"/><ellipse cx="1413.43" cy="984.331" rx="1.933" ry="1.597" fill="#ea2845" opacity=".331"/><ellipse cx="1685.84" cy="976.906" rx="1.54" ry="1.441" fill="#ea2845" opacity="-.036"/><g transform="rotate(-60.594 746.888 -1109.755)"><defs><linearGradient id="a" x1="0" y1="1" x2="177.249" y2="1" gradientUnits="userSpaceOnUse"><stop stop-color="#ea2845"/><stop offset=".3" stop-color="#ea28d7" stop-opacity=".1"/><stop offset=".7" stop-color="#ea28d7" stop-opacity="0"/></linearGradient></defs><rect x="-8.862" y="-11.3" width="70.9" height="22.6" rx="22.6" ry="22.6" fill="url(#a)" filter="url(#b)" opacity=".4"/><rect width="106.349" height="6.8" rx="6.8" ry="6.8" fill="url(#a)"/></g><g transform="rotate(-58.667 985.743 -1239.978)" fill="url(#a)"><rect x="-10.523" y="-11.3" width="84.186" height="22.6" rx="22.6" ry="22.6" filter="url(#b)" opacity=".4"/><rect width="126.279" height="6.8" rx="6.8" ry="6.8"/></g><g transform="rotate(-61.115 487.445 -26.863)" fill="url(#a)"><rect x="-10.059" y="-11.3" width="80.475" height="22.6" rx="22.6" ry="22.6" filter="url(#b)" opacity=".4"/><rect width="120.712" height="6.8" rx="6.8" ry="6.8"/></g><g transform="rotate(-55.559 1132.888 -319.32)" fill="url(#a)"><rect x="-7.617" y="-11.3" width="60.938" height="22.6" rx="22.6" ry="22.6" filter="url(#b)" opacity=".4"/><rect width="91.407" height="6.8" rx="6.8" ry="6.8"/></g><g transform="rotate(-56.786 1378.975 -501.718)" fill="url(#a)"><rect x="-8.448" y="-11.3" width="67.584" height="22.6" rx="22.6" ry="22.6" filter="url(#b)" opacity=".4"/><rect width="101.377" height="6.8" rx="6.8" ry="6.8"/></g></svg>