<svg xmlns="http://www.w3.org/2000/svg" version="1.1" xmlns:xlink="http://www.w3.org/1999/xlink" xmlns:svgjs="http://svgjs.dev/svgjs" viewBox="0 0 800 800"><defs><linearGradient x1="50%" y1="0%" x2="50%" y2="100%" id="ccchaos-grad"><stop stop-color="hsl(331, 28%, 86%)" stop-opacity="1" offset="0%"></stop><stop stop-color="hsl(331, 90%, 56%)" stop-opacity="1" offset="100%"></stop></linearGradient></defs><g stroke-width="1" stroke="url(#ccchaos-grad)" fill="none" stroke-linecap="round"><path d="M398.63 99.88C408.47 101.47 418.51 105.06 428.74 110.18 438.99 115.95 449.45 122.21 460.1 128.41 470.79 133.71 481.67 138.16 492.7 141.59 503.76 143.52 514.93 144.52 526.13 144.85 537.26 144.34 548.32 143.87 559.16 143.83 569.74 144.1 579.92 145.48 589.5 148.15 598.54 151.86 606.74 157.06 613.91 163.66 620.26 171.28 625.38 180.04 629.14 189.67 632.01 199.82 633.52 210.43 633.73 221.25 633.35 232.05 632.01 242.74 629.95 253.23 628.09 263.36 626.17 273.17 624.58 282.69 624.22 291.77 624.89 300.61 626.9 309.3 630.87 317.63 636.48 325.93 643.72 334.3 652.72 342.44 662.88 350.77 673.76 359.36 685.08 367.83 695.97 376.66 705.72 385.88 714.06 395.05 720.07 404.68 723.22 414.77 723.74 424.86 721.1 435.2 715.6 445.75 708.02 456.3 698.46 467.02 687.57 477.86 676.27 488.63 664.86 499.4 653.93 510.05 644.18 520.49 635.69 530.61 628.69 540.22 623.57 549.36 619.97 557.74 617.74 565.13 620.19 583.96 616.43 587.53 610.19 589.57 604.86 593.22 598.4 598.7 590.94 606.25 582.88 616.12 574.02 627.89 564.55 641.14 554.71 655.35 544.45 669.59 533.92 682.87 523.23 694.43 512.41 703.19 501.57 708.34 490.69 709.94 479.85 707.48 469.14 701.28 458.43 692.73 447.86 682.31 437.47 671.36 427.09 661.92 416.87 654.66 406.84 650.66 396.8 651.01 387.16 655.1 377.91 662.23 368.62 671.94 359.68 682.33 351.07 692 342.4 700.33 334.01 705.63 325.89 707.26 317.65 705.41 309.62 699.65 301.77 690.51 293.75 678.93 285.84 665.49 278.03 651.2 269.98 637.03 261.96 623.66 253.97 611.68 245.71 601.65 237.46 593.6 229.21 587.48 220.75 583.46 212.34 580.88 204.02 579.31 195.62 578.89 187.42 578.62 179.51 578.09 171.71 577.61 164.35 576.27 157.53 573.86 151.03 570.9 145.19 566.7 140.1 561.31 135.45 555.25 131.59 548.13 128.55 540.11 125.91 531.6 124.01 522.43 122.81 512.77 121.79 502.85 121.3 492.64 121.27 482.28 121.09 471.84 121.15 461.36 121.4 450.95 121.23 440.52 121.1 430.2 121 420.03 120.41 409.86 119.89 400.07 119.51 390.64 118.84 381.17 118.48 371.99 118.53 363.08 118.61 354.05 119.3 345.18 120.66 336.4 122.35 327.39 124.84 318.36 128.14 309.22 131.89 299.76 136.47 290.09 141.8 280.17 147.52 269.91 153.9 259.38 160.84 248.65 167.97 237.72 175.5 226.75 183.33 215.89 191.13 205.23 199.09 195.02 207.13 185.52 214.97 176.74 222.82 169.04 230.67 162.61 238.22 157.25 245.77 153.29 253.32 150.73 260.58 149 267.89 148.3 275.28 148.39 282.44 148.39 289.76 148.44 297.25 148.17 304.59 146.76 312.17 144.47 320.01 141.14 327.76 136.39 335.83 130.78 344.22 124.63 352.55 118 361.25 111.77 370.31 106.52 379.35 102.33 388.78 100.02 398.62 99.88" stroke-dasharray="4 10" transform="rotate(0, 400, 400)" opacity="0.05"></path><path d="M405.27 110.47C414.88 112.02 424.68 115.47 434.63 120.43 444.61 126.05 454.76 132.23 465.05 138.45 475.36 143.91 485.79 148.65 496.3 152.47 506.79 154.86 517.29 156.33 527.71 157.06 538 156.84 548.09 156.47 557.84 156.31 567.28 156.21 576.21 156.96 584.45 158.8 592.15 161.46 598.96 165.49 604.74 170.85 609.8 177.21 613.7 184.77 616.37 193.33 618.35 202.55 619.17 212.43 618.94 222.73 618.37 233.22 617.11 243.83 615.4 254.4 614.08 264.81 612.91 275.02 612.23 285.01 612.8 294.69 614.42 304.14 617.34 313.4 622.03 322.35 628.19 331.21 635.75 340.03 644.81 348.64 654.79 357.32 665.27 366.13 676.04 374.84 686.28 383.76 695.37 392.95 703.13 402.1 708.7 411.56 711.64 421.36 712.18 431.16 709.82 441.06 704.8 451.04 697.85 460.99 689.01 470.97 678.84 480.88 668.17 490.7 657.23 500.35 646.56 509.68 636.82 518.76 628.09 527.36 620.6 535.3 614.77 542.79 610.31 549.43 607.13 555.06 606.17 568.77 603.39 574.74 598.63 579.45 594.48 584.91 589.27 592.13 583.09 601.19 576.36 612.12 568.8 624.49 560.55 637.81 551.93 651.52 542.79 664.77 533.27 676.67 523.55 686.64 513.59 693.75 503.5 697.39 493.33 697.76 483.11 694.5 472.92 687.97 462.72 679.51 452.58 669.54 442.54 659.26 432.52 650.5 422.6 643.8 412.82 640.07 403.03 640.32 393.59 643.98 384.49 650.45 375.36 659.41 366.53 669.14 357.98 678.43 349.37 686.77 341 692.55 332.84 695.13 324.57 694.63 316.47 690.51 308.5 683.1 300.37 673.19 292.32 661.16 284.33 647.88 276.14 634.22 267.97 620.8 259.82 608.25 251.46 597.12 243.11 587.61 234.8 579.8 226.35 573.9 217.98 569.51 209.76 566.31 201.53 564.45 193.56 563.12 185.92 561.94 178.45 561.18 171.46 559.98 165.04 558.09 158.96 555.97 153.56 552.88 148.9 548.78 144.68 544.21 141.22 538.64 138.55 532.16 136.24 525.25 134.63 517.59 133.68 509.31 132.87 500.77 132.54 491.78 132.63 482.46 132.55 473.03 132.68 463.4 132.96 453.66 132.81 443.89 132.69 434.07 132.58 424.23 131.97 414.39 131.42 404.77 130.98 395.36 130.23 385.92 129.77 376.63 129.68 367.47 129.6 358.2 130.08 348.98 131.2 339.74 132.61 330.32 134.78 320.8 137.74 311.13 141.13 301.22 145.32 291.11 150.26 280.81 155.61 270.3 161.63 259.66 168.23 248.96 175.07 238.27 182.36 227.72 189.99 217.49 197.66 207.66 205.53 198.46 213.55 190.11 221.42 182.58 229.36 176.17 237.31 171.04 245.02 166.86 252.73 163.96 260.44 162.26 267.89 161.15 275.37 160.83 282.91 161.03 290.22 160.92 297.64 160.67 305.2 159.95 312.59 158.06 320.18 155.26 328 151.49 335.7 146.41 343.68 140.61 351.95 134.42 360.15 127.87 368.69 121.81 377.57 116.75 386.42 112.76 395.65 110.57 405.26 110.47" stroke-dasharray="4 9" transform="rotate(4.04, 400, 400)" opacity="0.09"></path><path d="M411.45 121.06C420.81 122.56 430.31 125.88 439.93 130.65 449.56 136.12 459.3 142.19 469.12 148.39 478.94 153.97 488.81 158.96 498.66 163.13 508.45 165.98 518.15 167.94 527.66 169.11 537.01 169.27 546.04 169.12 554.64 168.99 562.91 168.69 570.59 169 577.53 170.16 583.96 171.93 589.52 174.9 594.08 179.08 598.03 184.17 600.94 190.46 602.78 197.8 604.11 205.89 604.51 214.78 604.08 224.26 603.55 234.12 602.55 244.27 601.35 254.57 600.68 264.9 600.32 275.19 600.55 285.35 602.03 295.35 604.53 305.17 608.24 314.81 613.56 324.25 620.15 333.54 627.92 342.73 636.95 351.75 646.68 360.75 656.73 369.77 666.93 378.69 676.52 387.71 684.97 396.85 692.17 405.96 697.32 415.24 700.06 424.7 700.62 434.15 698.51 443.55 693.95 452.85 687.61 462.13 679.47 471.26 670.01 480.17 659.97 488.96 649.55 497.42 639.22 505.41 629.59 513.17 620.74 520.32 612.9 526.75 603.89 535.39 593.78 547.55 591.9 551.03 592.05 555.09 589.6 564.04 585.95 571.38 582.75 578.47 578.59 587.13 573.52 597.32 567.98 608.92 561.62 621.48 554.55 634.48 547.11 647.39 539.09 659.44 530.62 669.85 521.92 678.2 512.9 683.72 503.63 685.97 494.27 685.27 484.76 681.35 475.18 674.59 465.57 666.31 455.94 656.83 446.33 647.22 436.73 639.12 427.17 632.94 417.67 629.48 408.17 629.64 398.95 632.9 390.01 638.74 381.04 646.95 372.31 656.02 363.81 664.87 355.25 673.11 346.88 679.22 338.68 682.59 330.38 683.29 322.19 680.67 314.11 674.94 305.89 666.72 297.72 656.25 289.59 644.21 281.3 631.4 273.03 618.33 264.79 605.65 256.4 593.87 248.05 583.29 239.77 574.1 231.41 566.55 223.18 560.43 215.16 555.55 207.18 552.07 199.51 549.36 192.22 547.12 185.16 545.58 178.59 543.96 172.62 542.01 164.54 538.86 152.54 528.49 148.7 521.01 146.72 515.43 145.38 509.08 144.66 502.05 144.04 494.78 143.86 486.96 144.04 478.68 144.04 470.29 144.23 461.54 144.53 452.51 144.41 443.46 144.29 434.18 144.16 424.73 143.54 415.28 142.97 405.88 142.47 396.54 141.67 387.18 141.12 377.84 140.91 368.5 140.68 359.1 140.97 349.63 141.85 340.07 142.99 330.4 144.86 320.58 147.46 310.61 150.48 300.52 154.27 290.27 158.8 279.92 163.74 269.53 169.36 259.12 175.57 248.83 182.07 238.72 189.04 228.93 196.4 219.64 203.86 210.87 211.58 202.87 219.48 195.81 227.31 189.57 235.25 184.45 243.24 180.53 251.04 177.41 258.87 175.4 266.71 174.37 274.33 173.69 281.97 173.55 289.64 173.7 297.11 173.35 304.67 172.7 312.31 171.48 319.81 169.08 327.45 165.79 335.27 161.61 342.99 156.26 350.93 150.32 359.12 144.12 367.24 137.69 375.65 131.82 384.37 126.98 393.06 123.18 402.08 121.13 411.44 121.06" stroke-dasharray="5 9" transform="rotate(8.08, 400, 400)" opacity="0.13"></path><path d="M416.62 131.65C425.7 133.1 434.86 136.27 444.07 140.86 453.29 146.15 462.55 152.08 471.8 158.23 481.04 163.89 490.24 169.08 499.33 173.56 508.34 176.86 517.16 179.29 525.7 180.95 534.05 181.55 542.01 181.74 549.46 181.76 559.84 181.47 576.36 184.25 582.13 188.39 585.2 192.29 587.35 197.31 588.61 203.39 589.55 210.22 589.77 217.94 589.38 226.37 589.07 235.29 588.5 244.68 587.91 254.37 587.98 264.26 588.45 274.25 589.57 284.25 591.89 294.24 595.2 304.13 599.6 313.89 605.41 323.55 612.32 333.07 620.21 342.45 629.12 351.73 638.55 360.92 648.13 370.04 657.74 379.1 666.7 388.14 674.53 397.16 681.18 406.18 685.94 415.21 688.48 424.27 689.05 433.32 687.18 442.16 683.06 450.76 677.3 459.33 669.83 467.6 661.07 475.5 651.69 483.3 641.83 490.64 631.9 497.42 622.46 504.01 613.6 509.94 605.55 515.14 595.77 522.15 583.28 531.97 580.09 535.04 578.31 540.71 575.38 555.55 572.45 565.29 569.95 573.73 566.61 583.47 562.46 594.37 557.93 606.23 552.63 618.59 546.61 630.93 540.28 642.79 533.33 653.48 525.87 662.33 518.2 669.09 510.12 673.11 501.72 674.1 493.21 672.48 484.46 668.03 475.55 661.17 466.6 653.13 457.54 644.17 448.43 635.22 439.3 627.77 430.14 622.1 420.97 618.89 411.8 618.97 402.83 621.84 394.07 627.09 385.28 634.58 376.68 642.97 368.24 651.34 359.76 659.37 351.41 665.68 343.18 669.67 334.87 671.4 326.64 670.14 318.48 665.99 310.21 659.46 301.98 650.61 293.78 640 285.47 628.31 277.18 615.96 268.94 603.54 260.61 591.57 252.34 580.35 244.19 570.17 236.03 561.29 228.04 553.66 220.3 547.21 212.67 542.08 205.38 537.87 198.51 534.32 191.91 531.62 185.82 529.14 180.34 526.65 172.99 523.21 162.32 513.92 159.03 507.58 157.35 502.94 156.28 497.58 155.76 491.55 155.31 485.35 155.25 478.54 155.52 471.19 155.58 463.75 155.8 455.84 156.11 447.52 156 439.18 155.88 430.48 155.74 421.47 155.12 412.45 154.52 403.35 153.99 394.17 153.14 384.99 152.52 375.71 152.21 366.35 151.84 356.95 151.96 347.42 152.63 337.77 153.51 328.07 155.07 318.23 157.33 308.28 159.97 298.31 163.36 288.27 167.46 278.23 171.97 268.29 177.14 258.48 182.93 248.93 189.02 239.7 195.62 230.94 202.64 222.8 209.8 215.26 217.28 208.56 224.99 202.82 232.7 197.84 240.55 193.92 248.49 191.06 256.31 188.84 264.19 187.51 272.08 186.95 279.82 186.49 287.57 186.35 295.35 186.29 302.96 185.59 310.63 184.47 318.37 182.72 325.96 179.8 333.67 176.05 341.51 171.5 349.26 165.93 357.18 159.9 365.3 153.73 373.36 147.46 381.66 141.81 390.21 137.19 398.73 133.61 407.53 131.69 416.61 131.65" stroke-dasharray="1 6" transform="rotate(12.12, 400, 400)" opacity="0.16"></path><path d="M420.33 142.25C429.09 143.63 437.86 146.66 446.61 151.05 455.35 156.14 464.07 161.91 472.69 167.97 481.29 173.66 489.76 179.01 498.04 183.76 506.21 187.46 514.13 190.36 521.68 192.51 529.05 193.61 535.96 194.21 542.33 194.51 551.12 194.31 564.67 195.9 569.21 198.78 572.44 203.53 575.09 219.06 575.06 229.51 575.12 237.29 575.11 245.65 575.21 254.46 576.03 263.58 577.33 272.95 579.29 282.45 582.38 292.06 586.39 301.69 591.36 311.27 597.57 320.84 604.69 330.31 612.59 339.66 621.31 348.96 630.38 358.15 639.46 367.21 648.47 376.24 656.8 385.17 664.04 393.99 670.16 402.81 674.55 411.53 676.9 420.14 677.47 428.74 675.83 437.01 672.12 444.92 666.91 452.8 660.09 460.27 652.01 467.28 643.3 474.2 634.02 480.59 624.55 486.4 615.4 492.07 606.63 497.1 598.48 501.47 588.15 507.49 573.62 516.45 569.18 519.87 566.69 523.57 563.89 532.88 562.59 539.7 561.74 545.72 560.42 552.79 558.52 561.01 556.46 570.43 553.71 580.85 550.25 592.04 546.53 603.75 542.09 615.56 536.98 626.96 531.61 637.57 525.63 646.79 519.11 654.07 512.4 659.3 505.23 661.95 497.68 661.81 490.02 659.43 482.05 654.59 473.84 647.72 465.58 639.99 457.14 631.57 448.55 623.29 439.95 616.46 431.24 611.27 422.44 608.3 413.63 608.3 404.95 610.82 396.4 615.51 387.84 622.29 379.4 630 371.06 637.84 362.69 645.59 354.41 651.98 346.21 656.43 337.94 659 329.72 658.95 321.56 656.25 313.32 651.34 305.1 644.13 296.93 635.05 288.68 624.7 280.47 613.37 272.34 601.59 264.17 589.84 256.1 578.44 248.18 567.7 240.31 557.89 232.66 549.08 225.29 541.29 218.09 534.67 211.26 528.97 204.88 524.02 196 518.18 181.65 508.6 176.38 503.85 172.31 498.96 167.73 486.57 166.98 478.86 166.67 473.42 166.71 467.38 167.04 460.79 167.15 454.13 167.39 446.94 167.71 439.29 167.6 431.6 167.48 423.47 167.33 414.93 166.7 406.39 166.09 397.65 165.53 388.76 164.65 379.87 163.98 370.81 163.57 361.61 163.1 352.41 163.06 343.06 163.53 333.59 164.17 324.13 165.44 314.57 167.37 304.96 169.64 295.43 172.61 285.92 176.28 276.54 180.33 267.36 185.04 258.44 190.36 249.91 196 241.78 202.16 234.22 208.78 227.37 215.58 221.11 222.74 215.7 230.16 211.23 237.64 207.41 245.31 204.52 253.11 202.55 260.86 201 268.69 200.14 276.57 199.82 284.34 199.4 292.14 199.09 299.96 198.69 307.66 197.55 315.4 195.91 323.18 193.6 330.85 190.19 338.6 186.02 346.45 181.16 354.21 175.43 362.11 169.37 370.15 163.28 378.14 157.2 386.31 151.78 394.67 147.4 403.01 144.03 411.56 142.25 420.32 142.24" stroke-dasharray="1 5" transform="rotate(16.16, 400, 400)" opacity="0.20"></path><path d="M422.26 152.84C430.66 154.17 438.99 157.05 447.23 161.22 455.46 166.1 463.58 171.68 471.55 177.62 479.47 183.3 487.18 188.74 494.64 193.72 501.99 197.78 509.01 201.12 515.62 203.76 525.04 205.91 540.83 207.25 546.95 207.57 555.14 210.88 560.85 225.52 561.31 234.08 561.87 240.6 562.48 247.79 563.31 255.5 564.88 263.59 566.97 272.06 569.7 280.78 573.48 289.7 578.07 298.75 583.5 307.83 589.98 316.99 597.2 326.13 605.03 335.17 613.49 344.23 622.15 353.18 630.71 361.99 639.13 370.8 646.84 379.47 653.49 387.97 659.12 396.47 663.15 404.81 665.32 412.94 665.9 421.06 664.46 428.78 661.13 436.06 656.44 443.31 650.25 450.1 642.85 456.39 634.8 462.61 626.12 468.31 617.15 473.44 608.36 478.51 599.79 483.01 591.65 486.96 584.29 490.9 577.63 494.35 571.73 497.39 564.75 502.07 555.5 511.54 552.6 517.23 551.34 521.97 550.12 527.38 548.82 533.61 547.73 540.89 546.33 549.1 544.51 558.23 542.66 568.24 540.26 578.9 537.28 589.97 534.12 601.19 530.35 612.14 525.97 622.37 521.39 631.6 516.23 639.3 510.54 645.04 504.68 648.84 498.35 650.24 491.6 649.15 484.75 646.14 477.53 641.05 470.02 634.27 462.45 626.89 454.63 619.04 446.6 611.41 438.55 605.18 430.32 600.44 421.93 597.7 413.54 597.64 405.19 599.84 396.91 603.98 388.62 610.09 380.39 617.12 372.21 624.41 364.02 631.79 355.87 638.13 347.76 642.9 339.61 646.15 331.5 647.12 323.41 645.72 315.29 642.33 307.19 636.72 299.15 629.23 291.07 620.35 283.05 610.27 275.14 599.45 267.24 588.31 259.47 577.15 251.9 566.29 244.42 555.99 237.19 546.4 230.29 537.61 223.58 529.76 217.26 522.75 211.42 516.48 205.86 511.09 200.84 506.24 196.41 501.77 190.57 495.98 182.52 484.85 180.24 478.84 178.8 472.53 178.19 457.51 178.62 448.68 178.76 442.59 179.01 435.98 179.31 428.88 179.21 421.76 179.07 414.17 178.91 406.12 178.28 398.07 177.66 389.78 177.09 381.28 176.19 372.8 175.48 364.12 175 355.3 174.44 346.5 174.27 337.56 174.55 328.54 174.98 319.59 175.98 310.6 177.58 301.64 179.49 292.83 182.06 284.14 185.29 275.69 188.88 267.51 193.11 259.69 197.93 252.35 203.09 245.44 208.77 239.16 214.92 233.61 221.29 228.6 228.04 224.4 235.1 221.05 242.27 218.21 249.66 216.15 257.23 214.83 264.8 213.73 272.48 213.11 280.24 212.82 287.94 212.25 295.7 211.64 303.48 210.79 311.18 209.15 318.92 206.96 326.69 204.11 334.38 200.25 342.13 195.71 349.93 190.59 357.67 184.75 365.5 178.72 373.43 172.76 381.32 166.9 389.33 161.73 397.46 157.61 405.59 154.45 413.85 152.81 422.25 152.84" stroke-dasharray="7 2" transform="rotate(20.200000000000003, 400, 400)" opacity="0.24"></path><path d="M422.23 163.43C430.23 164.7 438.1 167.43 445.8 171.39 453.49 176.04 461 181.41 468.29 187.18 475.53 192.8 482.51 198.3 489.17 203.44 495.74 207.8 501.93 211.54 507.69 214.64 522.58 218.85 538.66 221.08 541.76 222.39 544.19 224.65 547.19 233.59 548.31 240.35 549.44 245.6 550.71 251.54 552.28 258.05 554.57 264.97 557.37 272.34 560.79 280.06 565.14 288.03 570.2 296.24 575.96 304.57 582.6 313.04 589.83 321.56 597.5 330.05 605.64 338.61 613.85 347.1 621.88 355.46 629.69 363.86 636.8 372.11 642.9 380.17 648.06 388.25 651.74 396.13 653.73 403.76 654.31 411.4 653.06 418.6 650.1 425.35 645.91 432.08 640.3 438.34 633.56 444.11 626.16 449.86 618.11 455.13 609.68 459.91 601.32 464.69 593.02 469.03 585 472.95 577.59 476.96 570.71 480.67 564.45 484.17 556.66 489.8 545.32 502.22 541.36 509.76 539.42 515.73 537.62 522.36 535.85 529.75 534.37 537.98 532.72 546.94 530.8 556.57 528.95 566.74 526.69 577.26 523.97 587.84 521.17 598.24 517.85 608.09 514.01 617 510.03 624.78 505.52 630.97 500.52 635.24 495.38 637.73 489.77 638.03 483.74 636.15 477.61 632.67 471.1 627.44 464.25 620.84 457.35 613.86 450.14 606.58 442.67 599.59 435.18 593.93 427.45 589.63 419.5 587.11 411.55 586.99 403.58 588.88 395.62 592.52 387.66 597.98 379.7 604.35 371.76 611.05 363.81 618.01 355.86 624.2 347.94 629.13 340 632.89 332.08 634.7 324.19 634.44 316.29 632.42 308.42 628.34 300.61 622.41 292.81 615.08 285.1 606.41 277.52 596.78 269.99 586.58 262.63 576.04 255.5 565.47 248.49 555.13 241.77 545.19 235.4 535.81 229.24 527.1 223.5 519.08 218.22 511.72 213.23 505.11 208.77 499.07 204.87 493.49 199.79 486.13 192.96 472.75 191.13 466.14 190.02 459.53 189.75 444.73 190.24 436.33 190.39 430.57 190.63 424.37 190.92 417.71 190.81 411.04 190.67 403.93 190.49 396.37 189.87 388.82 189.25 381.03 188.66 373.04 187.77 365.06 187.03 356.92 186.5 348.65 185.86 340.43 185.58 332.12 185.7 323.79 185.93 315.56 186.68 307.37 187.99 299.31 189.55 291.42 191.74 283.76 194.53 276.41 197.66 269.37 201.4 262.75 205.72 256.67 210.35 251 215.52 245.96 221.15 241.63 227.04 237.74 233.32 234.58 239.93 232.15 246.7 230.06 253.73 228.6 260.95 227.68 268.24 226.79 275.67 226.2 283.21 225.75 290.74 224.89 298.34 223.85 305.99 222.48 313.6 220.3 321.25 217.57 328.92 214.22 336.54 209.95 344.21 205.1 351.9 199.8 359.55 193.93 367.26 187.96 375.02 182.18 382.75 176.57 390.56 171.68 398.43 167.81 406.29 164.88 414.23 163.37 422.22 163.43" stroke-dasharray="0 8" transform="rotate(24.24, 400, 400)" opacity="0.28"></path><path d="M420.26 174.02C427.82 175.23 435.19 177.8 442.35 181.54 449.49 185.95 456.4 191.08 463.04 196.66 469.63 202.18 475.91 207.67 481.85 212.92 490.43 219.56 505.31 228.82 511.46 231.51 525.72 235.15 534.29 243.26 536.2 248.42 537.93 252.5 539.87 257.23 542.13 262.55 545.08 268.24 548.52 274.43 552.51 281.03 557.32 287.9 562.73 295.08 568.71 302.47 575.41 310.04 582.54 317.73 589.97 325.48 597.74 333.31 605.48 341.14 612.95 348.9 620.18 356.7 626.7 364.4 632.27 371.94 636.96 379.49 640.32 386.87 642.15 394.01 642.73 401.16 641.65 407.91 639.03 414.23 635.29 420.55 630.26 426.45 624.15 431.93 617.4 437.42 609.98 442.51 602.12 447.23 594.23 452.01 586.29 456.47 578.49 460.68 571.14 465.05 564.17 469.28 557.68 473.47 551.9 477.99 546.65 482.63 541.93 487.51 537.93 492.91 534.38 498.72 531.2 505.03 528.58 512.01 526.18 519.59 523.87 527.77 521.92 536.57 519.9 545.88 517.73 555.58 515.71 565.54 513.4 575.53 510.75 585.29 508.11 594.64 505.05 603.22 501.55 610.71 495.97 619.39 482.41 625.67 474.47 622.84 468.98 619.03 463.09 613.77 456.84 607.42 450.55 600.9 443.92 594.19 437 587.83 430.06 582.71 422.83 578.83 415.36 576.52 407.88 576.35 400.33 577.95 392.74 581.12 385.16 585.96 377.54 591.67 369.91 597.78 362.28 604.27 354.63 610.21 346.99 615.18 339.35 619.27 331.72 621.74 324.13 622.44 316.55 621.63 309.02 618.95 301.57 614.52 294.16 608.74 286.86 601.56 279.71 593.29 272.65 584.27 265.79 574.67 259.18 564.77 252.72 554.8 246.57 544.96 240.78 535.4 235.21 526.26 230.06 517.6 225.38 509.47 220.97 501.92 217.06 494.89 213.69 488.32 209.33 479.43 203.64 463.54 202.21 456.04 201.38 448.78 201.38 433.49 201.89 425.2 202.05 419.59 202.28 413.62 202.54 407.29 202.41 400.96 202.26 394.25 202.07 387.18 201.46 380.1 200.85 372.84 200.26 365.43 199.38 358.04 198.62 350.53 198.06 342.97 197.37 335.46 197 327.93 196.98 320.46 197.04 313.11 197.57 305.87 198.6 298.84 199.84 292 201.66 285.46 204.04 279.29 206.71 273.41 209.97 267.99 213.77 263.12 217.88 258.6 222.5 254.67 227.59 251.39 232.94 248.42 238.7 246.08 244.81 244.32 251.09 242.74 257.66 241.61 264.47 240.85 271.37 239.96 278.45 239.2 285.66 238.43 292.91 237.15 300.25 235.61 307.66 233.68 315.06 230.96 322.52 227.71 330 223.9 337.45 219.29 344.94 214.21 352.45 208.8 359.93 202.95 367.44 197.12 374.96 191.55 382.48 186.22 390.02 181.62 397.57 178.02 405.12 175.31 412.68 173.94 420.25 174.02" stroke-dasharray="5 5" transform="rotate(28.28, 400, 400)" opacity="0.32"></path><path d="M416.5 184.61C423.61 185.76 430.48 188.17 437.1 191.68 443.7 195.84 450.03 200.71 456.06 206.07 462.05 211.44 467.71 216.87 473.01 222.16 480.67 229.11 493.82 239.6 499.26 243.06 512.62 247.95 522.34 254.37 525.09 258.25 528.69 263.15 538.39 276.24 544.83 284.22 549.97 289.95 555.61 296.03 561.69 302.39 568.34 308.93 575.3 315.67 582.43 322.54 589.78 329.52 597.01 336.55 603.93 343.59 610.57 350.68 616.53 357.73 621.58 364.68 625.85 371.65 628.9 378.49 630.57 385.18 631.14 391.86 630.22 398.21 627.91 404.22 624.61 410.24 620.11 415.93 614.61 421.3 608.49 426.7 601.7 431.82 594.44 436.71 587.06 441.67 579.54 446.48 572.05 451.17 564.86 456.06 557.93 460.95 551.35 465.93 545.33 471.24 539.74 476.77 534.59 482.61 530.06 488.91 525.93 495.62 522.16 502.79 518.92 510.47 515.91 518.63 513.06 527.21 510.59 536.18 508.13 545.42 505.61 554.8 503.29 564.17 500.8 573.33 498.07 582.03 495.41 590.15 492.44 597.36 489.12 603.4 483.93 609.98 471.53 612.98 464.31 609.29 459.33 605.28 453.96 600.09 448.24 594.06 442.49 588.01 436.4 581.89 430 576.13 423.58 571.53 416.86 568.04 409.87 565.93 402.87 565.72 395.77 567.06 388.61 569.79 381.45 574.04 374.23 579.11 366.98 584.62 359.74 590.59 352.48 596.21 345.21 601.1 337.97 605.38 330.73 608.33 323.54 609.79 316.39 610.01 309.29 608.56 302.29 605.52 295.37 601.23 288.57 595.56 281.94 588.72 275.44 581.05 269.14 572.62 263.12 563.68 257.27 554.46 251.73 545.1 246.55 535.8 241.6 526.65 237.05 517.78 232.96 509.26 229.12 501.13 225.76 493.42 222.89 486.12 220.27 479.25 218.14 472.72 216.51 466.48 214.55 457.73 212.87 441.2 212.91 433.06 213.07 424.99 213.83 408.05 214.16 399.03 214.02 392.93 213.85 386.57 213.65 379.94 213.05 373.31 212.45 366.58 211.88 359.79 211.01 353.01 210.26 346.21 209.67 339.42 208.95 332.69 208.51 326.02 208.38 319.49 208.29 313.07 208.62 306.85 209.4 300.89 211.1 292.39 217.45 277.68 222.14 271.71 227.76 266.65 241.7 259.49 249.85 257.24 255.59 255.91 261.64 254.87 267.94 254.04 274.37 252.96 281.01 251.86 287.8 250.65 294.65 248.88 301.63 246.79 308.69 244.3 315.78 241.07 322.93 237.35 330.12 233.15 337.31 228.28 344.53 223.05 351.75 217.6 358.98 211.85 366.21 206.2 373.43 200.88 380.65 195.85 387.86 191.56 395.04 188.23 402.23 185.74 409.39 184.5 416.49 184.61" stroke-dasharray="8 7" transform="rotate(32.32, 400, 400)" opacity="0.35"></path><path d="M411.3 195.21C417.93 196.28 424.3 198.53 430.4 201.81 436.49 205.71 442.28 210.31 447.77 215.41 453.22 220.59 458.34 225.91 463.12 231.18 470.02 238.33 481.9 249.87 486.85 254.05 500.13 260.79 511.46 266.67 515.04 269.62 519.48 273.31 530.68 283.51 537.67 289.94 543.03 294.57 548.78 299.59 554.86 304.93 561.36 310.43 568.07 316.19 574.84 322.14 581.73 328.19 588.45 334.38 594.81 340.65 600.88 346.97 606.28 353.33 610.85 359.67 614.71 366.03 617.47 372.35 618.99 378.59 619.54 384.84 618.78 390.86 616.76 396.65 613.86 402.45 609.87 408.04 604.94 413.43 599.44 418.86 593.28 424.14 586.62 429.31 579.79 434.58 572.74 439.81 565.63 445.05 558.71 450.49 551.93 456.04 545.38 461.75 539.25 467.76 533.45 474.04 528.01 480.62 523.08 487.57 518.49 494.88 514.22 502.56 510.43 510.58 506.88 518.91 503.51 527.49 500.51 536.23 497.58 545.03 494.67 553.73 491.99 562.23 489.21 570.32 486.29 577.79 481.98 587.49 472.15 599.65 466.49 601.35 460.49 599.83 446.75 588.93 439.01 580.76 433.72 575.2 428.1 569.65 422.18 564.48 416.25 560.38 410.02 557.25 403.51 555.34 397 555.09 390.38 556.19 383.68 558.51 376.98 562.21 370.22 566.66 363.42 571.57 356.63 577.01 349.82 582.24 343.01 586.94 336.24 591.25 329.48 594.52 322.78 596.55 316.13 597.6 309.56 597.22 303.11 595.41 296.74 592.5 290.51 588.27 284.48 582.88 278.58 576.64 272.91 569.54 267.52 561.78 262.29 553.59 257.39 545.05 252.84 536.36 248.5 527.61 244.56 518.94 241.04 510.44 237.75 502.15 234.9 494.13 232.5 486.43 230.31 479.02 228.56 471.91 227.26 465.1 226.09 458.56 225.31 452.25 224.91 446.12 224.49 437.26 224.81 420.03 225.3 411.43 225.42 405.73 225.59 399.91 225.78 393.97 225.63 388.05 225.44 381.97 225.23 375.75 224.65 369.53 224.07 363.32 223.51 357.14 222.67 350.97 221.93 344.87 221.34 338.87 220.36 330.01 219.77 313.37 220.42 305.79 221.7 298.76 226.91 286.92 230.89 282.23 235.71 278.24 247.94 272.5 255.21 270.53 260.37 269.21 265.84 268.05 271.58 266.96 277.47 265.53 283.58 263.99 289.86 262.26 296.24 259.96 302.76 257.32 309.38 254.29 316.05 250.6 322.8 246.49 329.6 241.98 336.42 236.94 343.27 231.64 350.13 226.23 357 220.63 363.88 215.22 370.72 210.19 377.57 205.48 384.4 201.51 391.17 198.45 397.94 196.18 404.66 195.07 411.29 195.2" stroke-dasharray="9 7" transform="rotate(36.36, 400, 400)" opacity="0.39"></path><path d="M405.11 205.8C411.26 206.81 417.14 208.9 422.76 211.94 428.36 215.57 433.68 219.88 438.69 224.7 448.65 234.58 457.35 244.69 464.73 253.98 472.03 261.08 478.11 266.67 483.1 270.98 488.39 273.33 493.11 275.44 497.64 277.95 503.33 280.11 509.64 283.63 516.92 288.71 526.1 294.33 536.59 301.63 548.14 310.35 560.95 319.57 573.78 329.86 585.58 340.85 591.09 346.41 595.97 352.08 600.07 357.84 603.54 363.6 606.03 369.42 607.41 375.27 607.95 381.12 607.31 386.86 605.56 392.49 603.03 398.12 599.52 403.67 595.14 409.14 584.89 420.21 572.52 431.25 559.18 442.53 546.21 454.51 533.67 467.29 522.09 481.07 512.14 495.85 503.26 511.65 495.28 527.97 488.63 544.17 482.25 559.43 475.75 572.36 469.81 582.44 463.17 588.18 455.62 588.72 448.14 585.49 439.52 577.95 429.73 567.55 424.82 562.49 419.62 557.51 414.14 552.9 408.64 549.26 402.88 546.48 396.85 544.74 390.82 544.47 384.68 545.35 378.46 547.3 372.26 550.47 365.99 554.35 359.69 558.66 347.15 568.72 334.57 577.37 322.23 582.83 310.14 585.31 298.47 582.79 287.56 575.65 277.16 565.25 267.78 551.72 259.74 536.44 252.44 520.34 246.65 504.13 242.53 488.52 239.05 473.57 237.07 459.53 236.5 446.39 235.91 433.88 236.17 421.85 237.03 410.11 237.19 401.42 237.13 384.02 236.81 375.26 235.97 366.54 233.99 349.73 233.05 341.73 231.48 331.29 230.93 321.78 231.64 313.49 232.72 305.59 235.52 299.13 240.04 294.25 245.39 289.6 252.48 286.21 261.02 283.76 270.3 280.49 280.78 277.13 292.11 273.09 303.85 266.9 316.17 259.32 328.77 250.41 341.54 239.83 354.44 229.11 367.24 219.47 373.66 215.11 380.05 211.46 386.36 208.68 392.69 206.62 398.95 205.64 405.1 205.8" stroke-dasharray="5 5" transform="rotate(40.400000000000006, 400, 400)" opacity="0.43"></path><path d="M398.46 216.39C409.81 219.01 420.16 225.22 429.41 233.94 438.61 243.36 446.7 253.28 453.67 262.72 460.67 270.43 466.72 276.88 471.99 282.14 477.67 285.51 483.05 288.38 488.45 291.29 494.96 293.5 502.1 296.61 510.11 300.91 519.68 305.38 530.24 311.29 541.51 318.56 553.63 326.13 565.52 334.87 576.24 344.52 585.8 354.28 592.63 364.74 595.83 375.71 596.13 386.69 592.38 397.68 585.22 408.69 576.13 419.87 564.94 431.37 552.64 443.34 540.41 455.83 528.27 469.14 516.74 483.22 506.44 497.84 496.98 512.98 488.32 528.02 480.84 542.4 473.71 555.31 466.66 565.58 460.21 573.09 453.33 576.58 445.82 575.52 438.46 571.51 430.2 564.04 421 554.42 411.79 545.79 401.59 538.49 390.46 534.15 379.33 534.84 367.86 539.15 356.3 545.89 344.84 554.87 333.4 563 322.26 568.71 311.38 572.28 300.99 571.66 291.4 566.94 282.27 559.29 274.16 548.43 267.34 535.45 261.13 521.26 256.3 506.35 252.99 491.52 250.13 476.85 248.58 462.77 248.25 449.45 247.77 436.56 248.02 424.25 248.79 412.49 248.63 400.89 248.52 389.56 248.39 378.54 247.01 367.51 245.76 357.28 244.81 347.96 243.27 338.71 242.62 330.53 243.05 323.6 243.72 316.84 245.91 311.38 249.63 307.19 254.03 302.89 260.03 299.45 267.4 296.51 275.46 292.53 284.69 288.19 294.8 283.04 305.34 275.96 316.51 267.7 328.02 258.45 339.74 248 351.64 237.74 363.46 228.75 375.36 221.2 387.1 216.81 398.45 216.39" stroke-dasharray="4 2" transform="rotate(44.44, 400, 400)" opacity="0.47"></path><path d="M391.95 226.98C402.38 229.39 411.92 235.08 420.52 243.15 429.09 252.03 436.75 261.61 443.52 271.05 450.39 279.16 456.57 286.32 462.22 292.43 468.35 296.83 474.37 300.6 480.54 304.16 487.71 306.81 495.48 309.97 503.96 313.95 513.67 317.81 524.09 322.84 534.9 329.06 546.23 335.4 557.13 342.91 566.79 351.45 575.33 360.04 581.4 369.54 584.25 379.85 584.61 390.16 581.41 400.84 575.16 411.82 567.17 422.94 557.17 434.59 545.97 446.78 534.61 459.3 523.06 472.5 511.81 486.18 501.45 499.98 491.7 513.83 482.59 527.06 474.47 539.27 466.73 549.69 459.18 557.38 452.22 562.56 445.04 564.13 437.47 561.85 430.11 557.36 422.09 550.17 413.37 541.4 404.66 533.79 395.16 527.41 384.91 523.56 374.66 524.04 364.2 527.58 353.73 533.28 343.36 541.17 333.1 548.61 323.21 554.3 313.56 558.58 304.46 559.44 296.16 556.8 288.27 551.65 281.37 543.42 275.66 532.91 270.44 520.99 266.48 507.92 263.84 494.44 261.5 480.76 260.28 467.28 260.1 454.34 259.7 441.6 259.9 429.41 260.54 417.86 260.32 406.43 260.14 395.48 259.98 385.08 258.66 374.69 257.49 365.3 256.61 356.96 255.13 348.64 254.42 341.43 254.65 335.37 255.82 326.83 265.7 314.01 274.45 308.37 281.3 303.53 289.29 298.19 298.16 292.04 307.44 284.24 317.39 275.51 327.74 266.15 338.31 256.01 349.1 246.32 359.89 238.03 370.77 231.19 381.53 227.28 391.95 226.98" stroke-dasharray="1 4" transform="rotate(48.48, 400, 400)" opacity="0.51"></path><path d="M386.15 237.57C395.7 239.77 404.52 244.94 412.57 252.34 420.63 260.6 427.99 269.74 434.68 278.98 441.52 287.3 447.9 294.95 453.97 301.77 460.51 307.12 467.09 311.82 473.87 316.16 481.51 319.51 489.67 323.08 498.37 327.15 508 330.88 518.07 335.49 528.26 341.09 538.72 346.66 548.6 353.3 557.22 360.99 564.8 368.68 570.15 377.38 572.67 387.06 573.08 396.74 570.38 406.99 564.98 417.71 558.04 428.52 549.19 439.93 539.11 451.82 528.73 463.86 517.93 476.35 507.19 488.99 497.03 501.42 487.24 513.5 477.95 524.57 469.44 534.46 461.26 542.42 453.35 547.74 445.95 550.9 438.5 550.94 430.86 547.8 423.44 543.11 415.59 536.36 407.26 528.5 398.97 521.87 390.1 516.37 380.68 512.97 371.26 513.26 361.78 516.11 352.4 520.83 343.1 527.62 334.01 534.27 325.36 539.7 316.91 544.33 309.04 546.26 301.97 545.28 295.24 542.3 289.44 536.49 284.73 528.43 280.39 518.94 277.15 508.03 275.06 496.35 273.13 484.2 272.16 471.9 272.07 459.84 271.68 447.79 271.8 436.16 272.31 425.11 272 414.13 271.76 403.68 271.56 393.9 270.32 384.12 269.25 375.41 268.44 367.78 266.69 356.8 267.12 339.65 270.13 332.93 272.93 328.16 277 323.61 282.24 319 287.96 313.29 294.75 307.03 302.4 300.06 310.41 291.77 319.12 282.82 328.28 273.56 337.64 263.88 347.3 254.87 357.03 247.33 366.83 241.2 376.6 237.76 386.15 237.57" stroke-dasharray="10 0" transform="rotate(52.52, 400, 400)" opacity="0.54"></path><path d="M381.56 248.17C390.27 250.16 398.45 254.81 406.05 261.51 413.68 269.11 420.81 277.68 427.48 286.57 434.32 294.87 440.9 302.8 447.33 310.11 454.19 316.23 461.17 321.79 468.37 326.92 476.26 331.1 484.56 335.29 493.22 339.72 502.54 343.7 512.09 348.29 521.54 353.64 531.07 358.85 539.91 364.98 547.53 372.07 554.2 379.13 558.88 387.18 561.08 396.24 561.53 405.3 559.28 414.99 554.66 425.17 548.71 435.4 540.98 446.15 532.04 457.25 522.7 468.33 512.79 479.6 502.73 490.7 493.01 501.39 483.46 511.41 474.24 520.2 465.59 527.8 457.21 533.47 449.1 536.72 441.43 538.23 433.8 537.13 426.13 533.48 418.67 528.83 410.98 522.65 403.01 515.74 395.08 510.05 386.78 505.35 378.15 502.37 369.51 502.51 360.95 504.74 352.62 508.55 344.34 514.27 336.37 520.05 328.89 525.04 318.2 530.98 300.79 529.46 294.52 521.81 290.91 514.71 288.26 506.06 286.6 496.41 284.99 486.16 284.17 475.45 284.09 464.69 283.68 453.8 283.7 443.1 284.06 432.84 283.67 422.59 283.37 412.81 283.14 403.65 281.99 394.48 281.02 386.33 280.3 379.15 278.68 368.74 278.69 351.66 281.03 344.29 283.19 338.95 286.47 333.64 290.79 328.13 295.48 321.65 301.16 314.66 307.66 307.12 314.46 298.59 321.96 289.67 329.94 280.73 338.1 271.67 346.62 263.42 355.3 256.66 364.04 251.24 372.85 248.26 381.56 248.17" stroke-dasharray="4 10" transform="rotate(56.56, 400, 400)" opacity="0.58"></path><path d="M378.59 258.76C386.52 260.54 394.1 264.68 401.29 270.68 408.52 277.56 415.45 285.47 422.1 293.85 428.92 301.93 435.63 309.89 442.29 317.46 449.32 324.13 456.51 330.35 463.89 336.18 471.79 341.17 479.99 346.05 488.38 351 497.21 355.46 506.08 360.29 514.7 365.66 523.25 370.83 531.07 376.72 537.72 383.41 543.53 390.04 547.59 397.56 549.5 405.99 549.97 414.42 548.12 423.39 544.22 432.77 539.18 442.16 532.53 451.91 524.71 461.8 516.45 471.56 507.52 481.26 498.3 490.52 489.22 499.27 480.14 507.15 471.23 513.7 462.71 519.19 454.39 522.87 446.29 524.43 438.54 524.69 430.87 522.82 423.28 518.98 415.86 514.58 408.35 509.08 400.75 503.11 393.19 498.32 385.43 494.36 377.53 491.78 369.62 491.79 361.94 493.47 354.58 496.45 347.25 501.14 340.31 506.01 333.9 510.4 324.74 516.25 310.13 517.85 304.97 512.99 301.96 508.06 299.77 501.6 298.41 494.01 297.01 485.8 296.29 476.91 296.17 467.71 295.7 458.29 295.6 448.83 295.8 439.59 295.34 430.32 294.98 421.35 294.72 412.84 293.66 404.32 292.79 396.64 292.17 389.75 291.04 382.78 290.41 376.49 290.37 370.79 290.19 364.83 290.83 359.24 292.33 353.84 293.98 347.91 296.6 341.89 300.12 335.63 303.91 328.58 308.59 321.12 314.04 313.29 319.72 304.8 326.08 296.16 332.96 287.73 339.97 279.41 347.39 271.99 355.06 266.03 362.78 261.31 370.66 258.76 378.59 258.76" stroke-dasharray="10 1" transform="rotate(60.599999999999994, 400, 400)" opacity="0.62"></path><path d="M377.5 269.35C384.68 270.93 391.7 274.57 398.5 279.87 405.33 286 412.03 293.16 418.59 300.9 425.31 308.56 432.02 316.3 438.75 323.87 445.77 330.82 452.94 337.46 460.26 343.78 467.94 349.44 475.81 354.94 483.73 360.39 491.91 365.39 499.98 370.6 507.69 376.12 515.24 381.43 522.07 387.26 527.79 393.67 532.79 400.02 536.27 407.07 537.92 414.83 538.4 422.59 536.91 430.73 533.66 439.1 529.45 447.44 523.82 455.94 517.09 464.36 509.92 472.6 502.03 480.53 493.76 487.85 485.49 494.67 477.08 500.51 468.71 505.05 460.58 508.72 452.54 510.79 444.68 511.08 437.07 510.46 429.55 508.19 422.16 504.42 414.92 500.44 407.68 495.68 400.47 490.64 393.31 486.68 386.1 483.4 378.89 481.19 371.67 481.09 364.79 482.29 358.31 484.52 351.85 488.26 345.84 492.21 340.36 495.91 326.4 503.05 312.51 496.73 310.42 488.79 309.15 482.57 308.44 475.53 308.24 467.98 307.7 460.2 307.47 452.15 307.52 444.07 306.99 435.94 306.58 427.89 306.3 420.07 305.34 412.25 304.58 405 304.06 398.32 303.08 391.56 302.54 385.25 302.5 379.31 302.3 373.13 302.78 367.12 303.98 361.17 305.24 354.77 307.31 348.22 310.18 341.46 313.21 334.12 317.04 326.5 321.57 318.69 326.26 310.51 331.59 302.38 337.45 294.63 343.41 287.16 349.81 280.62 356.54 275.46 363.29 271.41 370.31 269.28 377.5 269.35" stroke-dasharray="1 1" transform="rotate(64.64, 400, 400)" opacity="0.66"></path><path d="M378.38 279.94C384.86 281.33 391.31 284.48 397.69 289.09 404.1 294.44 410.5 300.8 416.86 307.78 423.35 314.85 429.9 322.15 436.5 329.44 443.31 336.37 450.25 343.15 457.27 349.7 464.52 355.77 471.86 361.7 479.13 367.52 486.52 372.98 493.71 378.51 500.47 384.19 507.03 389.68 512.89 395.48 517.74 401.65 521.99 407.77 524.94 414.35 526.34 421.4 526.82 428.46 525.64 435.66 522.97 442.89 519.53 450.08 514.84 457.2 509.16 464.05 503.06 470.71 496.25 476.9 488.99 482.37 481.65 487.4 474.07 491.47 466.43 494.33 458.89 496.55 451.37 497.42 443.96 496.87 436.71 495.75 429.54 493.37 422.51 489.9 415.59 486.46 408.74 482.47 401.99 478.32 395.29 475.14 388.63 472.47 382.09 470.6 375.55 470.41 369.41 471.2 363.72 472.78 355.43 477.17 341.45 486.3 335.92 489.24 327.73 488.41 320.98 473.58 320.3 464.96 319.66 458.79 319.31 452.17 319.22 445.31 318.62 438.39 318.17 431.33 317.88 424.24 317.01 417.16 316.37 410.39 315.96 403.93 315.14 397.41 314.71 391.12 314.72 385 314.53 378.7 314.92 372.42 315.92 366.11 316.9 359.48 318.57 352.68 320.91 345.74 323.33 338.43 326.45 330.97 330.2 323.49 334.04 315.86 338.49 308.44 343.45 301.52 348.47 294.96 353.95 289.32 359.81 284.95 365.68 281.55 371.9 279.8 378.38 279.94" stroke-dasharray="1 6" transform="rotate(68.68, 400, 400)" opacity="0.70"></path><path d="M381.16 290.53C392.76 293.87 404.72 302.61 416.69 314.57 429.02 327.26 441.83 340.83 454.69 354.03 468.07 366.03 481.28 377.77 493.01 389.34 503.9 400.33 511.72 412.11 514.76 424.71 514.94 437.32 509.86 449.56 500.9 460.41 490.43 470.58 477.67 478.16 464.13 481.83 450.68 483.81 437.05 481.54 423.97 475.54 411.17 470.19 398.64 464.36 386.87 460.01 375.1 460.84 365.06 463.94 357.01 467.74 345.97 474.74 334.02 470.44 332.29 458.52 330.53 448.9 329.58 437.33 329.46 424.72 327.48 412.12 326.59 399.71 326.97 387.63 326.57 375.05 328.3 362 332.18 348.69 336.15 334.66 342.49 320.72 350.84 308.46 359.31 297.77 369.55 291.17 381.16 290.53" stroke-dasharray="5 11" transform="rotate(72.72, 400, 400)" opacity="0.73"></path><path d="M385.59 301.13C395.85 303.9 406.71 311.18 417.74 321.35 429 332.43 440.7 344.71 452.27 357 464.05 368.69 475.43 380.25 485.27 391.42 494.32 402.23 500.72 413.24 503.18 424.26 503.49 435.28 499.51 445.22 492.28 453.38 483.8 461.05 473.15 466.14 461.57 467.93 449.87 468.78 437.78 466.42 426.08 461.41 414.52 457.34 403.25 452.91 392.8 449.41 382.35 449.85 373.59 451.78 366.65 454.23 357.04 459.58 346.19 457.71 344.2 448.97 342.33 441.78 341.26 432.41 341.04 421.44 339.35 410.46 338.72 398.99 339.22 387.39 339.01 375.52 340.55 363.11 343.87 350.67 347.12 338.04 352.38 325.87 359.43 315.55 366.52 306.74 375.32 301.47 385.59 301.13" stroke-dasharray="8 9" transform="rotate(76.76, 400, 400)" opacity="0.77"></path><path d="M391.28 311.72C400.2 313.95 409.79 319.84 419.6 328.19 429.53 337.47 439.78 348.07 449.77 358.95 459.78 369.67 469.24 380.4 477.24 390.68 484.55 400.78 489.66 410.72 491.6 420.11 491.99 429.5 488.97 437.39 483.3 443.38 476.66 449.06 468.08 452.42 458.53 453.14 448.76 453.48 438.46 451.47 428.35 447.62 418.3 444.74 408.46 441.55 399.36 438.82 390.26 438.95 382.66 439.93 376.66 441.21 368.25 444.77 358.21 443.56 355.97 437.04 354.06 431.68 352.91 424.2 352.62 414.88 351.21 405.56 350.82 395.37 351.45 384.81 351.45 374.17 352.9 363.05 355.81 352.1 358.55 341.3 362.96 331.17 368.92 322.86 374.85 315.87 382.35 311.82 391.28 311.72" stroke-dasharray="10 0" transform="rotate(80.80000000000001, 400, 400)" opacity="0.81"></path><path d="M397.74 322.31C405.29 324.05 413.45 328.63 421.79 335.2 430.18 342.58 438.75 351.23 446.97 360.32 455.1 369.49 462.65 378.81 468.9 387.73 474.6 396.61 478.54 405.15 480.02 412.89 480.45 420.63 478.24 426.78 473.97 431.15 468.98 435.39 462.35 437.69 454.81 438 447.03 438.28 438.66 436.89 430.3 434.23 421.94 432.42 413.68 430.28 405.98 428.23 395.04 428.26 379.29 430.56 374.32 430.3 369.98 428.83 365.12 416.68 364.21 406.06 363.07 398.39 362.89 389.78 363.6 380.77 363.83 371.79 365.24 362.47 367.81 353.47 370.19 344.76 373.92 336.8 378.93 330.46 383.89 325.19 390.18 322.23 397.74 322.31" stroke-dasharray="9 10" transform="rotate(84.84, 400, 400)" opacity="0.85"></path><path d="M404.4 332.9C416.67 336.5 430.84 347.72 443.64 361.58 456.02 376.2 465.66 391.49 468.44 403.71 468.6 415.93 461.32 422.45 450.26 423.1 438.43 424.23 424.57 421.74 412.07 417.64 399.56 418.42 390.52 418.46 385.38 416.16 379.37 414.92 375.92 408.39 375.79 396.31 373.54 384.22 374.97 369.16 379.68 355.26 383.73 342.59 392.11 333.59 404.4 332.9" stroke-dasharray="10 8" transform="rotate(88.88, 400, 400)" opacity="0.89"></path><path d="M410.67 343.49C420.01 345.85 430.47 353.5 439.61 363.26 448.41 373.7 455.05 384.93 456.86 393.96 457.22 402.99 452.41 407.94 444.76 408.95 436.6 410.54 426.58 409.65 417.1 407.05 407.61 407.17 400.34 406.05 395.83 403.29 390.77 401.37 387.68 396.06 387.37 387.13 385.82 378.19 387.29 367.46 391.22 357.97 394.7 349.4 401.32 343.6 410.67 343.49" stroke-dasharray="6 0" transform="rotate(92.92, 400, 400)" opacity="0.92"></path><path d="M416 354.09C428.62 357.81 442.62 373.25 445.27 385.13 445.43 397.01 433.38 400.43 420.63 396.45 407.87 397.22 399.09 391.68 398.95 379.9 396.56 368.11 403.38 354.8 416 354.09" stroke-dasharray="6 8" transform="rotate(96.96, 400, 400)" opacity="0.96"></path></g></svg>